<?xml version="1.0" encoding="UTF-8"?>
<svg version="1.1" xmlns="http://www.w3.org/2000/svg" width="128" height="128">
<path d="M0 0 C42.24 0 84.48 0 128 0 C128 42.24 128 84.48 128 128 C85.76 128 43.52 128 0 128 C0 85.76 0 43.52 0 0 Z " fill="#FFF200" transform="translate(0,0)"/>
<path d="M0 0 C21.12 0 42.24 0 64 0 C64 2.64 64 5.28 64 8 C66.64 8 69.28 8 72 8 C72 13.28 72 18.56 72 24 C66.72 24 61.44 24 56 24 C56 18.72 56 13.44 56 8 C50.72 8 45.44 8 40 8 C40 21.2 40 34.4 40 48 C42.64 48 45.28 48 48 48 C48 53.28 48 58.56 48 64 C53.28 64 58.56 64 64 64 C64 66.64 64 69.28 64 72 C66.64 72 69.28 72 72 72 C72 74.64 72 77.28 72 80 C69.36 80 66.72 80 64 80 C64 82.64 64 85.28 64 88 C58.72 88 53.44 88 48 88 C48 85.36 48 82.72 48 80 C45.36 80 42.72 80 40 80 C40 74.72 40 69.44 40 64 C37.36 64 34.72 64 32 64 C32 58.72 32 53.44 32 48 C29.36 48 26.72 48 24 48 C24 37.44 24 26.88 24 16 C26.64 16 29.28 16 32 16 C32 13.36 32 10.72 32 8 C26.72 8 21.44 8 16 8 C16 10.64 16 13.28 16 16 C13.36 16 10.72 16 8 16 C8 21.28 8 26.56 8 32 C10.64 32 13.28 32 16 32 C16 42.56 16 53.12 16 64 C18.64 64 21.28 64 24 64 C24 69.28 24 74.56 24 80 C21.36 80 18.72 80 16 80 C16 82.64 16 85.28 16 88 C21.28 88 26.56 88 32 88 C32 90.64 32 93.28 32 96 C29.36 96 26.72 96 24 96 C24 98.64 24 101.28 24 104 C18.72 104 13.44 104 8 104 C8 101.36 8 98.72 8 96 C0.08 96 -7.84 96 -16 96 C-16 93.36 -16 90.72 -16 88 C-18.64 88 -21.28 88 -24 88 C-24 85.36 -24 82.72 -24 80 C-26.64 80 -29.28 80 -32 80 C-32 74.72 -32 69.44 -32 64 C-29.36 64 -26.72 64 -24 64 C-24 61.36 -24 58.72 -24 56 C-21.36 56 -18.72 56 -16 56 C-16 63.92 -16 71.84 -16 80 C-8.08 80 -0.16 80 8 80 C8 74.72 8 69.44 8 64 C5.36 64 2.72 64 0 64 C0 53.44 0 42.88 0 32 C-7.92 32 -15.84 32 -24 32 C-24 29.36 -24 26.72 -24 24 C-21.36 24 -18.72 24 -16 24 C-16 21.36 -16 18.72 -16 16 C-13.36 16 -10.72 16 -8 16 C-8 13.36 -8 10.72 -8 8 C-5.36 8 -2.72 8 0 8 C0 5.36 0 2.72 0 0 Z " fill="#000000" transform="translate(40,24)"/>
<path d="M0 0 C5.28 0 10.56 0 16 0 C16 2.64 16 5.28 16 8 C13.36 8 10.72 8 8 8 C8 15.92 8 23.84 8 32 C10.64 32 13.28 32 16 32 C16 29.36 16 26.72 16 24 C18.64 24 21.28 24 24 24 C24 21.36 24 18.72 24 16 C29.28 16 34.56 16 40 16 C40 18.64 40 21.28 40 24 C37.36 24 34.72 24 32 24 C32 26.64 32 29.28 32 32 C29.36 32 26.72 32 24 32 C24 34.64 24 37.28 24 40 C21.36 40 18.72 40 16 40 C16 42.64 16 45.28 16 48 C23.92 48 31.84 48 40 48 C40 58.56 40 69.12 40 80 C42.64 80 45.28 80 48 80 C48 85.28 48 90.56 48 96 C40.08 96 32.16 96 24 96 C24 88.08 24 80.16 24 72 C21.36 72 18.72 72 16 72 C16 74.64 16 77.28 16 80 C13.36 80 10.72 80 8 80 C8 85.28 8 90.56 8 96 C10.64 96 13.28 96 16 96 C16 98.64 16 101.28 16 104 C18.64 104 21.28 104 24 104 C24 106.64 24 109.28 24 112 C31.92 112 39.84 112 48 112 C48 114.64 48 117.28 48 120 C32.16 120 16.32 120 0 120 C0 80.4 0 40.8 0 0 Z " fill="#F4E816" transform="translate(0,8)"/>
<path d="M0 0 C5.28 0 10.56 0 16 0 C16 10.56 16 21.12 16 32 C18.64 32 21.28 32 24 32 C24 37.28 24 42.56 24 48 C21.36 48 18.72 48 16 48 C16 50.64 16 53.28 16 56 C21.28 56 26.56 56 32 56 C32 58.64 32 61.28 32 64 C29.36 64 26.72 64 24 64 C24 66.64 24 69.28 24 72 C18.72 72 13.44 72 8 72 C8 69.36 8 66.72 8 64 C0.08 64 -7.84 64 -16 64 C-16 61.36 -16 58.72 -16 56 C-18.64 56 -21.28 56 -24 56 C-24 53.36 -24 50.72 -24 48 C-26.64 48 -29.28 48 -32 48 C-32 42.72 -32 37.44 -32 32 C-29.36 32 -26.72 32 -24 32 C-24 29.36 -24 26.72 -24 24 C-21.36 24 -18.72 24 -16 24 C-16 31.92 -16 39.84 -16 48 C-8.08 48 -0.16 48 8 48 C8 42.72 8 37.44 8 32 C5.36 32 2.72 32 0 32 C0 21.44 0 10.88 0 0 Z " fill="#DE343A" transform="translate(40,56)"/>
<path d="M0 0 C5.28 0 10.56 0 16 0 C16 2.64 16 5.28 16 8 C13.36 8 10.72 8 8 8 C8 18.56 8 29.12 8 40 C10.64 40 13.28 40 16 40 C16 45.28 16 50.56 16 56 C18.64 56 21.28 56 24 56 C24 61.28 24 66.56 24 72 C26.64 72 29.28 72 32 72 C32 74.64 32 77.28 32 80 C37.28 80 42.56 80 48 80 C48 82.64 48 85.28 48 88 C45.36 88 42.72 88 40 88 C40 90.64 40 93.28 40 96 C29.44 96 18.88 96 8 96 C8 93.36 8 90.72 8 88 C10.64 88 13.28 88 16 88 C16 85.36 16 82.72 16 80 C10.72 80 5.44 80 0 80 C0 77.36 0 74.72 0 72 C2.64 72 5.28 72 8 72 C8 66.72 8 61.44 8 56 C5.36 56 2.72 56 0 56 C0 45.44 0 34.88 0 24 C-2.64 24 -5.28 24 -8 24 C-8 18.72 -8 13.44 -8 8 C-5.36 8 -2.72 8 0 8 C0 5.36 0 2.72 0 0 Z " fill="#FFF200" transform="translate(56,32)"/>
<path d="M0 0 C5.28 0 10.56 0 16 0 C16 23.76 16 47.52 16 72 C5.44 72 -5.12 72 -16 72 C-16 69.36 -16 66.72 -16 64 C-13.36 64 -10.72 64 -8 64 C-8 58.72 -8 53.44 -8 48 C-5.36 48 -2.72 48 0 48 C0 40.08 0 32.16 0 24 C2.64 24 5.28 24 8 24 C8 21.36 8 18.72 8 16 C2.72 16 -2.56 16 -8 16 C-8 13.36 -8 10.72 -8 8 C-5.36 8 -2.72 8 0 8 C0 5.36 0 2.72 0 0 Z " fill="#F4E816" transform="translate(112,56)"/>
<path d="M0 0 C5.28 0 10.56 0 16 0 C16 10.56 16 21.12 16 32 C18.64 32 21.28 32 24 32 C24 37.28 24 42.56 24 48 C29.28 48 34.56 48 40 48 C40 50.64 40 53.28 40 56 C42.64 56 45.28 56 48 56 C48 58.64 48 61.28 48 64 C45.36 64 42.72 64 40 64 C40 66.64 40 69.28 40 72 C34.72 72 29.44 72 24 72 C24 69.36 24 66.72 24 64 C21.36 64 18.72 64 16 64 C16 58.72 16 53.44 16 48 C13.36 48 10.72 48 8 48 C8 42.72 8 37.44 8 32 C5.36 32 2.72 32 0 32 C0 21.44 0 10.88 0 0 Z " fill="#EC1C24" transform="translate(64,40)"/>
<path d="M0 0 C5.28 0 10.56 0 16 0 C16 2.64 16 5.28 16 8 C13.36 8 10.72 8 8 8 C8 15.92 8 23.84 8 32 C10.64 32 13.28 32 16 32 C16 29.36 16 26.72 16 24 C18.64 24 21.28 24 24 24 C24 21.36 24 18.72 24 16 C29.28 16 34.56 16 40 16 C40 18.64 40 21.28 40 24 C37.36 24 34.72 24 32 24 C32 26.64 32 29.28 32 32 C29.36 32 26.72 32 24 32 C24 34.64 24 37.28 24 40 C21.36 40 18.72 40 16 40 C16 42.64 16 45.28 16 48 C18.64 48 21.28 48 24 48 C24 53.28 24 58.56 24 64 C21.36 64 18.72 64 16 64 C16 61.36 16 58.72 16 56 C13.36 56 10.72 56 8 56 C8 58.64 8 61.28 8 64 C5.36 64 2.72 64 0 64 C0 42.88 0 21.76 0 0 Z " fill="#FFF200" transform="translate(0,8)"/>
<path d="M0 0 C5.28 0 10.56 0 16 0 C16 10.56 16 21.12 16 32 C18.64 32 21.28 32 24 32 C24 37.28 24 42.56 24 48 C18.72 48 13.44 48 8 48 C8 42.72 8 37.44 8 32 C5.36 32 2.72 32 0 32 C0 21.44 0 10.88 0 0 Z " fill="#878CDE" transform="translate(40,56)"/>
<path d="M0 0 C2.64 0 5.28 0 8 0 C8 2.64 8 5.28 8 8 C10.64 8 13.28 8 16 8 C16 10.64 16 13.28 16 16 C18.64 16 21.28 16 24 16 C24 18.64 24 21.28 24 24 C31.92 24 39.84 24 48 24 C48 26.64 48 29.28 48 32 C32.16 32 16.32 32 0 32 C0 21.44 0 10.88 0 0 Z " fill="#FFF200" transform="translate(0,96)"/>
<path d="M0 0 C2.64 0 5.28 0 8 0 C8 5.28 8 10.56 8 16 C15.92 16 23.84 16 32 16 C32 18.64 32 21.28 32 24 C29.36 24 26.72 24 24 24 C24 29.28 24 34.56 24 40 C21.36 40 18.72 40 16 40 C16 37.36 16 34.72 16 32 C10.72 32 5.44 32 0 32 C0 21.44 0 10.88 0 0 Z " fill="#FFF200" transform="translate(88,56)"/>
<path d="M0 0 C7.92 0 15.84 0 24 0 C24 5.28 24 10.56 24 16 C26.64 16 29.28 16 32 16 C32 18.64 32 21.28 32 24 C29.36 24 26.72 24 24 24 C24 26.64 24 29.28 24 32 C21.36 32 18.72 32 16 32 C16 34.64 16 37.28 16 40 C13.36 40 10.72 40 8 40 C8 32.08 8 24.16 8 16 C10.64 16 13.28 16 16 16 C16 13.36 16 10.72 16 8 C10.72 8 5.44 8 0 8 C0 5.36 0 2.72 0 0 Z " fill="#EC1C24" transform="translate(0,0)"/>
<path d="M0 0 C5.28 0 10.56 0 16 0 C16 10.56 16 21.12 16 32 C18.64 32 21.28 32 24 32 C24 37.28 24 42.56 24 48 C21.36 48 18.72 48 16 48 C16 45.36 16 42.72 16 40 C13.36 40 10.72 40 8 40 C8 32.08 8 24.16 8 16 C5.36 16 2.72 16 0 16 C0 10.72 0 5.44 0 0 Z " fill="#F4E816" transform="translate(24,56)"/>
<path d="M0 0 C10.56 0 21.12 0 32 0 C32 5.28 32 10.56 32 16 C18.8 16 5.6 16 -8 16 C-8 13.36 -8 10.72 -8 8 C-5.36 8 -2.72 8 0 8 C0 5.36 0 2.72 0 0 Z " fill="#DE343A" transform="translate(96,0)"/>
<path d="M0 0 C10.56 0 21.12 0 32 0 C32 2.64 32 5.28 32 8 C34.64 8 37.28 8 40 8 C40 10.64 40 13.28 40 16 C26.8 16 13.6 16 0 16 C0 10.72 0 5.44 0 0 Z " fill="#F4E816" transform="translate(32,8)"/>
<path d="M0 0 C5.28 0 10.56 0 16 0 C16 10.56 16 21.12 16 32 C10.72 32 5.44 32 0 32 C0 21.44 0 10.88 0 0 Z " fill="#EC1C24" transform="translate(64,40)"/>
<path d="M0 0 C5.28 0 10.56 0 16 0 C16 7.92 16 15.84 16 24 C13.36 24 10.72 24 8 24 C8 29.28 8 34.56 8 40 C5.36 40 2.72 40 0 40 C0 26.8 0 13.6 0 0 Z " fill="#FFF53B" transform="translate(80,32)"/>
<path d="M0 0 C7.92 0 15.84 0 24 0 C24 5.28 24 10.56 24 16 C13.44 16 2.88 16 -8 16 C-8 13.36 -8 10.72 -8 8 C-5.36 8 -2.72 8 0 8 C0 5.36 0 2.72 0 0 Z " fill="#862427" transform="translate(104,112)"/>
<path d="M0 0 C2.64 0 5.28 0 8 0 C8 2.64 8 5.28 8 8 C10.64 8 13.28 8 16 8 C16 5.36 16 2.72 16 0 C21.28 0 26.56 0 32 0 C32 2.64 32 5.28 32 8 C29.36 8 26.72 8 24 8 C24 10.64 24 13.28 24 16 C13.44 16 2.88 16 -8 16 C-8 13.36 -8 10.72 -8 8 C-5.36 8 -2.72 8 0 8 C0 5.36 0 2.72 0 0 Z " fill="#FFF53B" transform="translate(72,112)"/>
<path d="M0 0 C10.56 0 21.12 0 32 0 C32 2.64 32 5.28 32 8 C26.72 8 21.44 8 16 8 C16 10.64 16 13.28 16 16 C13.36 16 10.72 16 8 16 C8 18.64 8 21.28 8 24 C5.36 24 2.72 24 0 24 C0 16.08 0 8.16 0 0 Z " fill="#F4E816" transform="translate(96,48)"/>
<path d="M0 0 C2.64 0 5.28 0 8 0 C8 10.56 8 21.12 8 32 C5.36 32 2.72 32 0 32 C0 29.36 0 26.72 0 24 C-2.64 24 -5.28 24 -8 24 C-8 18.72 -8 13.44 -8 8 C-5.36 8 -2.72 8 0 8 C0 5.36 0 2.72 0 0 Z " fill="#565FE0" transform="translate(16,80)"/>
<path d="M0 0 C5.28 0 10.56 0 16 0 C16 5.28 16 10.56 16 16 C8.08 16 0.16 16 -8 16 C-8 13.36 -8 10.72 -8 8 C-5.36 8 -2.72 8 0 8 C0 5.36 0 2.72 0 0 Z " fill="#FFF200" transform="translate(112,96)"/>
<path d="M0 0 C7.92 0 15.84 0 24 0 C24 2.64 24 5.28 24 8 C21.36 8 18.72 8 16 8 C16 10.64 16 13.28 16 16 C10.72 16 5.44 16 0 16 C0 10.72 0 5.44 0 0 Z " fill="#EC1C24" transform="translate(88,96)"/>
<path d="M0 0 C2.64 0 5.28 0 8 0 C8 7.92 8 15.84 8 24 C10.64 24 13.28 24 16 24 C16 26.64 16 29.28 16 32 C10.72 32 5.44 32 0 32 C0 21.44 0 10.88 0 0 Z " fill="#FFF200" transform="translate(24,72)"/>
<path d="M0 0 C5.28 0 10.56 0 16 0 C16 2.64 16 5.28 16 8 C13.36 8 10.72 8 8 8 C8 10.64 8 13.28 8 16 C2.72 16 -2.56 16 -8 16 C-8 13.36 -8 10.72 -8 8 C-5.36 8 -2.72 8 0 8 C0 5.36 0 2.72 0 0 Z " fill="#878CDE" transform="translate(56,112)"/>
<path d="M0 0 C5.28 0 10.56 0 16 0 C16 2.64 16 5.28 16 8 C13.36 8 10.72 8 8 8 C8 10.64 8 13.28 8 16 C2.72 16 -2.56 16 -8 16 C-8 13.36 -8 10.72 -8 8 C-5.36 8 -2.72 8 0 8 C0 5.36 0 2.72 0 0 Z " fill="#565FE0" transform="translate(112,56)"/>
<path d="M0 0 C2.64 0 5.28 0 8 0 C8 10.56 8 21.12 8 32 C5.36 32 2.72 32 0 32 C0 21.44 0 10.88 0 0 Z " fill="#565FE0" transform="translate(40,56)"/>
<path d="M0 0 C2.64 0 5.28 0 8 0 C8 10.56 8 21.12 8 32 C5.36 32 2.72 32 0 32 C0 21.44 0 10.88 0 0 Z " fill="#000000" transform="translate(48,56)"/>
<path d="M0 0 C5.28 0 10.56 0 16 0 C16 5.28 16 10.56 16 16 C10.72 16 5.44 16 0 16 C0 10.72 0 5.44 0 0 Z " fill="#565FE0" transform="translate(96,32)"/>
<path d="M0 0 C2.64 0 5.28 0 8 0 C8 10.56 8 21.12 8 32 C5.36 32 2.72 32 0 32 C0 21.44 0 10.88 0 0 Z " fill="#000000" transform="translate(64,40)"/>
<path d="M0 0 C7.92 0 15.84 0 24 0 C24 5.28 24 10.56 24 16 C21.36 16 18.72 16 16 16 C16 13.36 16 10.72 16 8 C10.72 8 5.44 8 0 8 C0 5.36 0 2.72 0 0 Z " fill="#878CDE" transform="translate(0,0)"/>
<path d="M0 0 C2.64 0 5.28 0 8 0 C8 5.28 8 10.56 8 16 C2.72 16 -2.56 16 -8 16 C-8 13.36 -8 10.72 -8 8 C-5.36 8 -2.72 8 0 8 C0 5.36 0 2.72 0 0 Z " fill="#878CDE" transform="translate(120,112)"/>
<path d="M0 0 C7.92 0 15.84 0 24 0 C24 2.64 24 5.28 24 8 C16.08 8 8.16 8 0 8 C0 5.36 0 2.72 0 0 Z " fill="#000000" transform="translate(24,112)"/>
<path d="M0 0 C2.64 0 5.28 0 8 0 C8 2.64 8 5.28 8 8 C10.64 8 13.28 8 16 8 C16 10.64 16 13.28 16 16 C10.72 16 5.44 16 0 16 C0 10.72 0 5.44 0 0 Z " fill="#EC1C24" transform="translate(0,112)"/>
<path d="M0 0 C7.92 0 15.84 0 24 0 C24 2.64 24 5.28 24 8 C16.08 8 8.16 8 0 8 C0 5.36 0 2.72 0 0 Z " fill="#565FE0" transform="translate(16,48)"/>
<path d="M0 0 C2.64 0 5.28 0 8 0 C8 7.92 8 15.84 8 24 C5.36 24 2.72 24 0 24 C0 16.08 0 8.16 0 0 Z " fill="#FFF53B" transform="translate(120,24)"/>
<path d="M0 0 C5.28 0 10.56 0 16 0 C16 2.64 16 5.28 16 8 C13.36 8 10.72 8 8 8 C8 10.64 8 13.28 8 16 C5.36 16 2.72 16 0 16 C0 10.72 0 5.44 0 0 Z " fill="#FFF53B" transform="translate(24,24)"/>
<path d="M0 0 C2.64 0 5.28 0 8 0 C8 2.64 8 5.28 8 8 C10.64 8 13.28 8 16 8 C16 10.64 16 13.28 16 16 C10.72 16 5.44 16 0 16 C0 10.72 0 5.44 0 0 Z " fill="#DE343A" transform="translate(56,8)"/>
<path d="M0 0 C2.64 0 5.28 0 8 0 C8 7.92 8 15.84 8 24 C5.36 24 2.72 24 0 24 C0 16.08 0 8.16 0 0 Z " fill="#DE343A" transform="translate(8,16)"/>
<path d="M0 0 C2.64 0 5.28 0 8 0 C8 5.28 8 10.56 8 16 C2.72 16 -2.56 16 -8 16 C-8 13.36 -8 10.72 -8 8 C-5.36 8 -2.72 8 0 8 C0 5.36 0 2.72 0 0 Z " fill="#DE343A" transform="translate(96,0)"/>
<path d="M0 0 C5.28 0 10.56 0 16 0 C16 2.64 16 5.28 16 8 C10.72 8 5.44 8 0 8 C0 5.36 0 2.72 0 0 Z " fill="#EC1C24" transform="translate(104,112)"/>
<path d="M0 0 C5.28 0 10.56 0 16 0 C16 2.64 16 5.28 16 8 C10.72 8 5.44 8 0 8 C0 5.36 0 2.72 0 0 Z " fill="#565FE0" transform="translate(56,112)"/>
<path d="M0 0 C5.28 0 10.56 0 16 0 C16 2.64 16 5.28 16 8 C10.72 8 5.44 8 0 8 C0 5.36 0 2.72 0 0 Z " fill="#F4E816" transform="translate(104,104)"/>
<path d="M0 0 C5.28 0 10.56 0 16 0 C16 2.64 16 5.28 16 8 C10.72 8 5.44 8 0 8 C0 5.36 0 2.72 0 0 Z " fill="#000000" transform="translate(88,104)"/>
<path d="M0 0 C5.28 0 10.56 0 16 0 C16 2.64 16 5.28 16 8 C10.72 8 5.44 8 0 8 C0 5.36 0 2.72 0 0 Z " fill="#565FE0" transform="translate(88,88)"/>
<path d="M0 0 C2.64 0 5.28 0 8 0 C8 5.28 8 10.56 8 16 C5.36 16 2.72 16 0 16 C0 10.72 0 5.44 0 0 Z " fill="#000000" transform="translate(80,88)"/>
<path d="M0 0 C2.64 0 5.28 0 8 0 C8 5.28 8 10.56 8 16 C5.36 16 2.72 16 0 16 C0 10.72 0 5.44 0 0 Z " fill="#000000" transform="translate(56,88)"/>
<path d="M0 0 C2.64 0 5.28 0 8 0 C8 5.28 8 10.56 8 16 C5.36 16 2.72 16 0 16 C0 10.72 0 5.44 0 0 Z " fill="#000000" transform="translate(8,88)"/>
<path d="M0 0 C2.64 0 5.28 0 8 0 C8 5.28 8 10.56 8 16 C5.36 16 2.72 16 0 16 C0 10.72 0 5.44 0 0 Z " fill="#000000" transform="translate(112,80)"/>
<path d="M0 0 C2.64 0 5.28 0 8 0 C8 5.28 8 10.56 8 16 C5.36 16 2.72 16 0 16 C0 10.72 0 5.44 0 0 Z " fill="#000000" transform="translate(72,72)"/>
<path d="M0 0 C5.28 0 10.56 0 16 0 C16 2.64 16 5.28 16 8 C10.72 8 5.44 8 0 8 C0 5.36 0 2.72 0 0 Z " fill="#878CDE" transform="translate(112,56)"/>
<path d="M0 0 C2.64 0 5.28 0 8 0 C8 5.28 8 10.56 8 16 C5.36 16 2.72 16 0 16 C0 10.72 0 5.44 0 0 Z " fill="#DE343A" transform="translate(72,40)"/>
<path d="M0 0 C2.64 0 5.28 0 8 0 C8 5.28 8 10.56 8 16 C5.36 16 2.72 16 0 16 C0 10.72 0 5.44 0 0 Z " fill="#F4E816" transform="translate(48,40)"/>
<path d="M0 0 C2.64 0 5.28 0 8 0 C8 5.28 8 10.56 8 16 C5.36 16 2.72 16 0 16 C0 10.72 0 5.44 0 0 Z " fill="#FFF53B" transform="translate(0,40)"/>
<path d="M0 0 C2.64 0 5.28 0 8 0 C8 5.28 8 10.56 8 16 C5.36 16 2.72 16 0 16 C0 10.72 0 5.44 0 0 Z " fill="#000000" transform="translate(104,32)"/>
<path d="M0 0 C5.28 0 10.56 0 16 0 C16 2.64 16 5.28 16 8 C10.72 8 5.44 8 0 8 C0 5.36 0 2.72 0 0 Z " fill="#DE343A" transform="translate(80,32)"/>
<path d="M0 0 C5.28 0 10.56 0 16 0 C16 2.64 16 5.28 16 8 C10.72 8 5.44 8 0 8 C0 5.36 0 2.72 0 0 Z " fill="#F4E816" transform="translate(56,32)"/>
<path d="M0 0 C2.64 0 5.28 0 8 0 C8 5.28 8 10.56 8 16 C5.36 16 2.72 16 0 16 C0 10.72 0 5.44 0 0 Z " fill="#F4E816" transform="translate(72,8)"/>
<path d="M0 0 C2.64 0 5.28 0 8 0 C8 5.28 8 10.56 8 16 C5.36 16 2.72 16 0 16 C0 10.72 0 5.44 0 0 Z " fill="#878CDE" transform="translate(104,0)"/>
<path d="M0 0 C2.64 0 5.28 0 8 0 C8 2.64 8 5.28 8 8 C5.36 8 2.72 8 0 8 C0 5.36 0 2.72 0 0 Z " fill="#FFF200" transform="translate(64,120)"/>
<path d="M0 0 C2.64 0 5.28 0 8 0 C8 2.64 8 5.28 8 8 C5.36 8 2.72 8 0 8 C0 5.36 0 2.72 0 0 Z " fill="#FFF200" transform="translate(96,112)"/>
<path d="M0 0 C2.64 0 5.28 0 8 0 C8 2.64 8 5.28 8 8 C5.36 8 2.72 8 0 8 C0 5.36 0 2.72 0 0 Z " fill="#F4E816" transform="translate(80,112)"/>
<path d="M0 0 C2.64 0 5.28 0 8 0 C8 2.64 8 5.28 8 8 C5.36 8 2.72 8 0 8 C0 5.36 0 2.72 0 0 Z " fill="#FFF200" transform="translate(48,112)"/>
<path d="M0 0 C2.64 0 5.28 0 8 0 C8 2.64 8 5.28 8 8 C5.36 8 2.72 8 0 8 C0 5.36 0 2.72 0 0 Z " fill="#000000" transform="translate(48,104)"/>
<path d="M0 0 C2.64 0 5.28 0 8 0 C8 2.64 8 5.28 8 8 C5.36 8 2.72 8 0 8 C0 5.36 0 2.72 0 0 Z " fill="#565FE0" transform="translate(40,104)"/>
<path d="M0 0 C2.64 0 5.28 0 8 0 C8 2.64 8 5.28 8 8 C5.36 8 2.72 8 0 8 C0 5.36 0 2.72 0 0 Z " fill="#000000" transform="translate(16,104)"/>
<path d="M0 0 C2.64 0 5.28 0 8 0 C8 2.64 8 5.28 8 8 C5.36 8 2.72 8 0 8 C0 5.36 0 2.72 0 0 Z " fill="#000000" transform="translate(104,96)"/>
<path d="M0 0 C2.64 0 5.28 0 8 0 C8 2.64 8 5.28 8 8 C5.36 8 2.72 8 0 8 C0 5.36 0 2.72 0 0 Z " fill="#DE343A" transform="translate(40,96)"/>
<path d="M0 0 C2.64 0 5.28 0 8 0 C8 2.64 8 5.28 8 8 C5.36 8 2.72 8 0 8 C0 5.36 0 2.72 0 0 Z " fill="#565FE0" transform="translate(48,88)"/>
<path d="M0 0 C2.64 0 5.28 0 8 0 C8 2.64 8 5.28 8 8 C5.36 8 2.72 8 0 8 C0 5.36 0 2.72 0 0 Z " fill="#FFF200" transform="translate(40,88)"/>
<path d="M0 0 C2.64 0 5.28 0 8 0 C8 2.64 8 5.28 8 8 C5.36 8 2.72 8 0 8 C0 5.36 0 2.72 0 0 Z " fill="#F4E816" transform="translate(56,80)"/>
<path d="M0 0 C2.64 0 5.28 0 8 0 C8 2.64 8 5.28 8 8 C5.36 8 2.72 8 0 8 C0 5.36 0 2.72 0 0 Z " fill="#000000" transform="translate(16,80)"/>
<path d="M0 0 C2.64 0 5.28 0 8 0 C8 2.64 8 5.28 8 8 C5.36 8 2.72 8 0 8 C0 5.36 0 2.72 0 0 Z " fill="#FFF200" transform="translate(8,80)"/>
<path d="M0 0 C2.64 0 5.28 0 8 0 C8 2.64 8 5.28 8 8 C5.36 8 2.72 8 0 8 C0 5.36 0 2.72 0 0 Z " fill="#FFF200" transform="translate(120,64)"/>
<path d="M0 0 C2.64 0 5.28 0 8 0 C8 2.64 8 5.28 8 8 C5.36 8 2.72 8 0 8 C0 5.36 0 2.72 0 0 Z " fill="#FFF200" transform="translate(104,56)"/>
<path d="M0 0 C2.64 0 5.28 0 8 0 C8 2.64 8 5.28 8 8 C5.36 8 2.72 8 0 8 C0 5.36 0 2.72 0 0 Z " fill="#878CDE" transform="translate(40,56)"/>
<path d="M0 0 C2.64 0 5.28 0 8 0 C8 2.64 8 5.28 8 8 C5.36 8 2.72 8 0 8 C0 5.36 0 2.72 0 0 Z " fill="#F4E816" transform="translate(0,56)"/>
<path d="M0 0 C2.64 0 5.28 0 8 0 C8 2.64 8 5.28 8 8 C5.36 8 2.72 8 0 8 C0 5.36 0 2.72 0 0 Z " fill="#FFF200" transform="translate(120,48)"/>
<path d="M0 0 C2.64 0 5.28 0 8 0 C8 2.64 8 5.28 8 8 C5.36 8 2.72 8 0 8 C0 5.36 0 2.72 0 0 Z " fill="#000000" transform="translate(16,48)"/>
<path d="M0 0 C2.64 0 5.28 0 8 0 C8 2.64 8 5.28 8 8 C5.36 8 2.72 8 0 8 C0 5.36 0 2.72 0 0 Z " fill="#878CDE" transform="translate(96,32)"/>
<path d="M0 0 C2.64 0 5.28 0 8 0 C8 2.64 8 5.28 8 8 C5.36 8 2.72 8 0 8 C0 5.36 0 2.72 0 0 Z " fill="#3F48CC" transform="translate(32,32)"/>
<path d="M0 0 C2.64 0 5.28 0 8 0 C8 2.64 8 5.28 8 8 C5.36 8 2.72 8 0 8 C0 5.36 0 2.72 0 0 Z " fill="#EC1C24" transform="translate(8,32)"/>
<path d="M0 0 C2.64 0 5.28 0 8 0 C8 2.64 8 5.28 8 8 C5.36 8 2.72 8 0 8 C0 5.36 0 2.72 0 0 Z " fill="#FFF200" transform="translate(48,16)"/>
<path d="M0 0 C2.64 0 5.28 0 8 0 C8 2.64 8 5.28 8 8 C5.36 8 2.72 8 0 8 C0 5.36 0 2.72 0 0 Z " fill="#EC1C24" transform="translate(120,8)"/>
<path d="M0 0 C2.64 0 5.28 0 8 0 C8 2.64 8 5.28 8 8 C5.36 8 2.72 8 0 8 C0 5.36 0 2.72 0 0 Z " fill="#EC1C24" transform="translate(88,8)"/>
<path d="M0 0 C2.64 0 5.28 0 8 0 C8 2.64 8 5.28 8 8 C5.36 8 2.72 8 0 8 C0 5.36 0 2.72 0 0 Z " fill="#EC1C24" transform="translate(56,8)"/>
<path d="M0 0 C2.64 0 5.28 0 8 0 C8 2.64 8 5.28 8 8 C5.36 8 2.72 8 0 8 C0 5.36 0 2.72 0 0 Z " fill="#565FE0" transform="translate(120,0)"/>
<path d="M0 0 C2.64 0 5.28 0 8 0 C8 2.64 8 5.28 8 8 C5.36 8 2.72 8 0 8 C0 5.36 0 2.72 0 0 Z " fill="#EC1C24" transform="translate(112,0)"/>
<path d="M0 0 C2.64 0 5.28 0 8 0 C8 2.64 8 5.28 8 8 C5.36 8 2.72 8 0 8 C0 5.36 0 2.72 0 0 Z " fill="#EC1C24" transform="translate(96,0)"/>
<path d="M0 0 C2.64 0 5.28 0 8 0 C8 2.64 8 5.28 8 8 C5.36 8 2.72 8 0 8 C0 5.36 0 2.72 0 0 Z " fill="#565FE0" transform="translate(0,0)"/>
</svg>
