<svg width="26" height="18" viewBox="0 0 26 18" fill="none" xmlns="http://www.w3.org/2000/svg">
<path d="M24.9355 2.85635C24.8228 2.37926 24.5711 1.94268 24.2196 1.58201C24.1455 1.50343 24.068 1.43305 23.9841 1.36267C23.3613 0.83667 22.4872 0.508545 21.5322 0.508545H3.46783C2.5129 0.508545 1.6419 0.83667 1.01616 1.36267C0.932424 1.43305 0.854982 1.50343 0.780666 1.58201C0.428956 1.94264 0.177246 2.37926 0.0676759 2.85635C0.0226563 3.04048 0 3.23076 0 3.42314V14.0857C0 14.4947 0.103223 14.888 0.287305 15.243C0.458058 15.582 0.709816 15.8887 1.01612 16.1459C1.09375 16.211 1.17085 16.2708 1.25498 16.3303C1.85489 16.7478 2.62925 17 3.46783 17H21.5322C22.3711 17 23.1488 16.7478 23.7453 16.3277C23.8291 16.2708 23.9066 16.211 23.9841 16.1459C24.2902 15.8887 24.5419 15.582 24.7162 15.243V15.2404C24.9002 14.8853 25 14.4947 25 14.0857V3.42314C25 3.23076 24.9777 3.04048 24.9355 2.85635ZM2.27095 2.4171C2.58077 2.15701 2.99683 1.99955 3.46783 1.99955H21.5322C22.0032 1.99955 22.4229 2.15701 22.7291 2.4171C22.7839 2.46343 22.8355 2.51505 22.8811 2.56635L13.4129 9.50125C13.1518 9.69359 12.8292 9.78859 12.5 9.78859C12.1741 9.78859 11.8518 9.69359 11.5872 9.50125L2.12266 2.56339C2.16456 2.5121 2.21617 2.46343 2.27095 2.4171ZM1.77412 14.0857V4.10631L8.6259 9.12975L1.77759 14.1479C1.77412 14.1288 1.77412 14.1074 1.77412 14.0857ZM21.5322 15.5087H3.46783C3.16114 15.5087 2.87418 15.441 2.62925 15.3219L9.85476 10.0299L10.5293 10.5231C11.0938 10.9353 11.8002 11.1441 12.5 11.1441C13.2034 11.1441 13.9098 10.9353 14.4742 10.5231L15.1485 10.0299L22.3711 15.3219C22.1259 15.441 21.8389 15.5087 21.5322 15.5087ZM23.2259 14.0857C23.2259 14.1074 23.2259 14.1288 23.2226 14.1479L16.3743 9.13267L23.2259 4.10898V14.0857Z" fill="white" stroke="white" stroke-width="0.390625"/>
</svg>
