<svg width="26" height="18" viewBox="0 0 26 18" fill="none" xmlns="http://www.w3.org/2000/svg">
<path d="M25 2.2125V16.2775C25 16.599 24.814 16.9075 24.4831 17.1349C24.1522 17.3623 23.7033 17.49 23.2353 17.49H2.76471C2.29667 17.49 1.84781 17.3623 1.51686 17.1349C1.18593 16.9075 1 16.599 1 16.2775V2.2125C1 1.89092 1.18593 1.58252 1.51686 1.35514C1.84781 1.12775 2.29667 1 2.76471 1H23.2353C23.7033 1 24.1522 1.12775 24.4831 1.35514C24.814 1.58252 25 1.89092 25 2.2125ZM8.05882 7.305H4.52942V15.065H8.05882V7.305ZM8.37647 4.6375C8.37833 4.45407 8.32758 4.27218 8.22713 4.10222C8.12669 3.93227 7.9785 3.77757 7.79103 3.64697C7.60356 3.51636 7.3805 3.4124 7.13456 3.34103C6.88862 3.26966 6.62462 3.23227 6.35765 3.231H6.29411C5.75121 3.231 5.23053 3.37919 4.84662 3.64295C4.46273 3.90673 4.24706 4.26448 4.24706 4.6375C4.24706 5.01052 4.46273 5.36828 4.84662 5.63205C5.23053 5.89581 5.75121 6.044 6.29411 6.044C6.56111 6.04851 6.82678 6.01683 7.07594 5.95078C7.3251 5.88472 7.55289 5.78558 7.74627 5.65902C7.93965 5.53246 8.09484 5.38095 8.20297 5.21316C8.31111 5.04538 8.37006 4.8646 8.37647 4.68115V4.6375ZM21.4706 10.3508C21.4706 8.01798 19.3106 7.111 17.1648 7.111C16.4622 7.08683 15.7626 7.18964 15.1358 7.40921C14.5092 7.62873 13.9771 7.95738 13.593 8.36229H13.4941V7.305H10.1765V15.065H13.7059V10.9376C13.6549 10.515 13.8487 10.0955 14.2452 9.77037C14.6416 9.44527 15.2089 9.24079 15.8235 9.20138H15.9577C17.08 9.20138 17.913 9.68635 17.913 10.9085V15.065H21.4424L21.4706 10.3508Z" stroke="white" stroke-linejoin="round"/>
</svg>
